# xmcd
# 
# Track frame offsets:
#     150
#     21838
#     39166
#     60854
# 
# Disc length: 1040
# 
# Revision: 2
# Processed by: cddbd v1.5.2PL0 Copyright (c) Steve Scherf et al.
# Submitted via: BonkEnc v1.0.15
# 
DISCID=21040e04
DTITLE=Arashi - One Love
DYEAR=0
DGENRE=
TTITLE0=One Love
TTITLE1=How to Fly
TTITLE2=One Love
TTITLE3=How to Fly
EXTD=
EXTT0=
EXTT1=
EXTT2=
EXTT3=
PLAYORDER=
